<svg version="1.1" id="Layer_1" xmlns="http://www.w3.org/2000/svg" xmlns:xlink="http://www.w3.org/1999/xlink" x="0px" y="0px"
	 width="100%" viewBox="250 185 760 850" enable-background="new 0 0 1254 1254" xml:space="preserve">
<path fill="#FAC908" opacity="1.000000" stroke="none" 
	d="
M354.413879,893.514038 
	C322.304749,877.264343 290.548553,861.142151 258.698761,845.207092 
	C255.660034,843.686768 254.814529,841.945862 254.816132,838.711853 
	C254.893051,683.897339 254.893814,529.082764 254.814392,374.268188 
	C254.812637,370.844299 255.795532,369.088928 258.990082,367.523376 
	C338.241974,328.684998 417.418182,289.692169 496.628571,250.769028 
	C539.042175,229.927444 581.503662,209.183060 623.910645,188.328140 
	C627.053650,186.782486 629.677368,186.269699 633.150146,187.969467 
	C727.939758,234.364685 822.834412,280.545319 917.607300,326.974518 
	C944.222107,340.013123 970.481567,353.775696 996.983948,367.046631 
	C1000.264648,368.689484 1001.339172,370.582611 1001.336609,374.268921 
	C1001.229126,527.916748 1001.211365,681.564758 1001.368958,835.212463 
	C1001.375061,841.216858 999.794373,844.537048 994.180054,847.385742 
	C929.743835,880.080261 865.488037,913.130005 801.135071,945.989075 
	C745.394348,974.450623 689.570740,1002.750244 633.860352,1031.270996 
	C630.202271,1033.143799 627.474609,1033.211304 623.806580,1031.317627 
	C565.817566,1001.380859 507.779266,971.538940 449.685333,941.805969 
	C418.102234,925.641418 386.393219,909.722839 354.413879,893.514038 
M510.975739,943.538391 
	C545.764771,961.550842 580.553772,979.563293 615.916016,997.872498 
	C615.916016,994.878906 615.923218,992.889099 615.914795,990.899292 
	C615.656921,929.753845 615.285645,868.608704 615.165710,807.462952 
	C615.004883,725.476868 615.017517,643.490295 615.060608,561.504028 
	C615.062439,558.070435 614.115417,556.258545 610.904053,554.700867 
	C590.225464,544.670410 569.706238,534.312256 549.073181,524.186829 
	C467.491669,484.151642 385.891235,444.154846 304.284912,404.170197 
	C297.186066,400.691956 289.992706,397.406555 282.097839,393.679749 
	C282.097839,399.432709 282.110931,404.230682 282.095856,409.028625 
	C281.926758,462.852386 281.787170,516.676270 281.573212,570.499878 
	C281.239380,654.481750 280.878235,738.463623 280.409332,822.444824 
	C280.389160,826.053101 281.764923,827.695374 284.820892,829.179871 
	C297.688904,835.430908 310.458984,841.885620 323.221283,848.351868 
	C385.591919,879.953003 447.948608,911.581604 510.975739,943.538391 
M940.718567,368.719391 
	C893.701416,345.455200 846.709412,322.139862 799.660461,298.940186 
	C745.324646,272.147491 690.916138,245.501938 636.611816,218.645721 
	C631.654846,216.194229 627.515991,215.569061 622.264954,218.233246 
	C599.869202,229.595871 577.248474,240.514969 554.712524,251.601318 
	C485.686371,285.558105 416.664520,319.523682 347.633392,353.470306 
	C334.100372,360.125275 320.533234,366.710846 306.282684,373.669830 
	C308.541931,374.915466 310.062286,375.834015 311.649414,376.617157 
	C416.274567,428.242706 520.911316,479.844543 625.502197,531.539429 
	C628.401184,532.972229 630.647522,532.783264 633.394470,531.413147 
	C664.992249,515.652710 696.631348,499.975006 728.264771,484.286072 
	C794.305176,451.532593 860.353882,418.795593 926.384766,386.022614 
	C934.240967,382.123352 942.006714,378.041779 950.411987,373.738739 
	C946.935669,371.917145 944.167480,370.466614 940.718567,368.719391 
M975.644714,653.500305 
	C975.644714,566.794006 975.644714,480.087677 975.644714,392.837433 
	C973.777222,393.684906 972.860413,394.071289 971.969238,394.509674 
	C921.079407,419.542908 870.187683,444.572418 819.304688,469.619690 
	C761.933167,497.860992 704.609985,526.201355 647.128784,554.217651 
	C642.344055,556.549805 640.831543,558.979187 640.836670,564.166504 
	C640.976440,707.125671 640.939514,850.084900 640.942322,993.044189 
	C640.942383,994.642395 641.078796,996.240540 641.175049,998.355835 
	C642.491699,997.782349 643.376343,997.451416 644.212341,997.025208 
	C687.534607,974.936279 730.876648,952.885986 774.165771,930.732300 
	C839.650696,897.219666 905.075256,863.588806 970.617981,830.189697 
	C974.665527,828.127075 975.913635,825.839722 975.898132,821.451538 
	C975.701294,765.801575 975.698730,710.150879 975.644714,653.500305 
z"/>
<path fill="#020200" opacity="1.000000" stroke="none" 
	d="
M510.642975,943.369507 
	C447.948608,911.581604 385.591919,879.953003 323.221283,848.351868 
	C310.458984,841.885620 297.688904,835.430908 284.820892,829.179871 
	C281.764923,827.695374 280.389160,826.053101 280.409332,822.444824 
	C280.878235,738.463623 281.239380,654.481750 281.573212,570.499878 
	C281.787170,516.676270 281.926758,462.852386 282.095856,409.028625 
	C282.110931,404.230682 282.097839,399.432709 282.097839,393.679749 
	C289.992706,397.406555 297.186066,400.691956 304.284912,404.170197 
	C385.891235,444.154846 467.491669,484.151642 549.073181,524.186829 
	C569.706238,534.312256 590.225464,544.670410 610.904053,554.700867 
	C614.115417,556.258545 615.062439,558.070435 615.060608,561.504028 
	C615.017517,643.490295 615.004883,725.476868 615.165710,807.462952 
	C615.285645,868.608704 615.656921,929.753845 615.914795,990.899292 
	C615.923218,992.889099 615.916016,994.878906 615.916016,997.872498 
	C580.553772,979.563293 545.764771,961.550842 510.642975,943.369507 
M417.924347,777.572205 
	C413.694977,775.614197 409.559784,773.405090 405.208099,771.773132 
	C401.322754,770.315979 400.246277,767.979492 400.257202,763.901489 
	C400.415894,704.750671 400.392303,645.599365 400.431091,586.448181 
	C400.431885,585.198853 400.654572,583.949646 400.831024,582.100159 
	C424.439667,592.984131 447.546173,603.587646 470.559937,614.388672 
	C471.730103,614.937866 472.710297,617.172729 472.745605,618.647461 
	C472.948822,627.139954 472.990601,635.643921 472.762207,644.135254 
	C472.673523,647.430908 473.709900,649.078308 476.786682,650.475098 
	C495.570709,659.002808 514.236572,667.790527 532.952454,676.468811 
	C534.524597,677.197754 536.174255,677.759521 537.937012,678.458069 
	C538.175720,677.345337 538.366943,676.866943 538.368408,676.388062 
	C538.431702,655.061218 538.540161,633.733826 538.388550,612.408325 
	C538.378418,610.976013 536.692871,608.929993 535.267273,608.235657 
	C526.596558,604.012573 517.861206,599.891785 508.959015,596.189941 
	C505.700897,594.835083 504.967621,593.081970 505.048706,589.844299 
	C505.286438,580.352295 505.301971,570.848877 505.086273,561.357178 
	C505.051697,559.836426 503.741577,557.590332 502.414429,556.962891 
	C462.962494,538.309998 423.440613,519.804871 383.910339,501.317932 
	C377.775665,498.448944 371.546967,495.780945 364.487762,492.629852 
	C364.487762,505.646942 364.487762,517.839172 364.487762,530.793152 
	C353.869507,525.910522 344.105438,521.420654 333.721252,516.645691 
	C333.721252,527.671082 333.722778,537.964355 333.721008,548.257629 
	C333.708557,620.572632 333.729614,692.887634 333.586334,765.202393 
	C333.578766,769.001160 334.849243,770.764954 338.190277,772.219604 
	C346.734406,775.939636 355.082367,780.107544 363.571991,783.956909 
	C365.997314,785.056702 366.996918,786.454590 366.932648,789.245422 
	C366.729279,798.071777 366.994629,806.909180 366.768250,815.734436 
	C366.689240,818.812683 367.545380,820.504639 370.408325,821.852173 
	C404.572021,837.933167 438.666107,854.161987 472.807556,870.290344 
	C483.296844,875.245544 493.874756,880.013123 505.246338,885.250854 
	C505.246338,873.252930 505.246338,862.085022 505.246338,850.151123 
	C516.660278,855.337891 527.266663,860.157654 538.055969,865.060608 
	C538.288696,863.891663 538.468140,863.409607 538.468750,862.927307 
	C538.495605,841.099854 538.588318,819.271606 538.359497,797.446716 
	C538.341919,795.769470 536.406799,793.357483 534.751953,792.568237 
	C516.726562,783.971619 498.585297,775.617554 480.457520,767.236511 
	C478.134766,766.162598 475.709412,765.310608 472.552673,764.043030 
	C472.552673,777.476379 472.552673,789.884644 472.552673,803.016541 
	C454.100952,794.424316 436.353088,786.159851 417.924347,777.572205 
z"/>
<path fill="#010100" opacity="1.000000" stroke="none" 
	d="
M941.058960,368.867737 
	C944.167480,370.466614 946.935669,371.917145 950.411987,373.738739 
	C942.006714,378.041779 934.240967,382.123352 926.384766,386.022614 
	C860.353882,418.795593 794.305176,451.532593 728.264771,484.286072 
	C696.631348,499.975006 664.992249,515.652710 633.394470,531.413147 
	C630.647522,532.783264 628.401184,532.972229 625.502197,531.539429 
	C520.911316,479.844543 416.274567,428.242706 311.649414,376.617157 
	C310.062286,375.834015 308.541931,374.915466 306.282684,373.669830 
	C320.533234,366.710846 334.100372,360.125275 347.633392,353.470306 
	C416.664520,319.523682 485.686371,285.558105 554.712524,251.601318 
	C577.248474,240.514969 599.869202,229.595871 622.264954,218.233246 
	C627.515991,215.569061 631.654846,216.194229 636.611816,218.645721 
	C690.916138,245.501938 745.324646,272.147491 799.660461,298.940186 
	C846.709412,322.139862 893.701416,345.455200 941.058960,368.867737 
z"/>
<path fill="#020200" opacity="1.000000" stroke="none" 
	d="
M975.645630,654.000366 
	C975.698730,710.150879 975.701294,765.801575 975.898132,821.451538 
	C975.913635,825.839722 974.665527,828.127075 970.617981,830.189697 
	C905.075256,863.588806 839.650696,897.219666 774.165771,930.732300 
	C730.876648,952.885986 687.534607,974.936279 644.212341,997.025208 
	C643.376343,997.451416 642.491699,997.782349 641.175049,998.355835 
	C641.078796,996.240540 640.942383,994.642395 640.942322,993.044189 
	C640.939514,850.084900 640.976440,707.125671 640.836670,564.166504 
	C640.831543,558.979187 642.344055,556.549805 647.128784,554.217651 
	C704.609985,526.201355 761.933167,497.860992 819.304688,469.619690 
	C870.187683,444.572418 921.079407,419.542908 971.969238,394.509674 
	C972.860413,394.071289 973.777222,393.684906 975.644714,392.837433 
	C975.644714,480.087677 975.644714,566.794006 975.645630,654.000366 
M921.205383,515.884583 
	C911.633240,520.336243 902.061096,524.787903 891.743042,529.586426 
	C891.743042,515.202148 891.743042,501.806610 891.743042,487.882507 
	C889.826294,488.706573 888.472229,489.244141 887.155579,489.861633 
	C873.587708,496.225037 860.014832,502.577881 846.464722,508.978821 
	C813.631653,524.488831 780.829590,540.064880 747.950500,555.476685 
	C744.957581,556.879639 743.797913,558.454712 743.889282,561.819580 
	C744.133362,570.810730 743.692993,579.823364 744.040466,588.807495 
	C744.210266,593.196350 742.612366,595.273560 738.669983,596.888855 
	C731.286743,599.914124 724.237061,603.752258 716.857849,606.788513 
	C713.133911,608.320740 712.117065,610.418762 712.273621,614.299805 
	C712.910339,630.085754 713.523193,645.884399 713.575684,661.680237 
	C713.800171,729.168762 713.820740,796.658020 713.929321,864.146973 
	C713.931580,865.557922 714.098450,866.968628 714.221497,868.894714 
	C725.277832,863.621460 735.837646,858.584961 747.308289,853.114075 
	C747.308289,865.748230 747.308289,877.416809 747.308289,889.585571 
	C748.956543,888.929138 749.880249,888.631775 750.741821,888.208191 
	C797.022034,865.454590 843.308105,842.712708 889.515137,819.811340 
	C890.804932,819.172119 891.919006,816.834106 891.965698,815.254272 
	C892.221375,806.596191 892.319763,797.921021 892.042664,789.265503 
	C891.924744,785.582397 892.966919,783.637329 896.445984,782.141052 
	C904.544983,778.657532 912.505371,774.823853 920.346619,770.791199 
	C922.009827,769.935974 922.925171,767.626648 924.450928,765.097351 
	C924.472473,684.423950 924.494507,603.750549 924.512817,523.077148 
	C924.513306,520.914917 924.582214,518.740601 924.342407,516.602966 
	C924.304810,516.267578 922.783081,516.098633 921.205383,515.884583 
z"/>
<path fill="#FCCA0A" opacity="1.000000" stroke="none" 
	d="
M418.264801,777.733765 
	C436.353088,786.159851 454.100952,794.424316 472.552673,803.016541 
	C472.552673,789.884644 472.552673,777.476379 472.552673,764.043030 
	C475.709412,765.310608 478.134766,766.162598 480.457520,767.236511 
	C498.585297,775.617554 516.726562,783.971619 534.751953,792.568237 
	C536.406799,793.357483 538.341919,795.769470 538.359497,797.446716 
	C538.588318,819.271606 538.495605,841.099854 538.468750,862.927307 
	C538.468140,863.409607 538.288696,863.891663 538.055969,865.060608 
	C527.266663,860.157654 516.660278,855.337891 505.246338,850.151123 
	C505.246338,862.085022 505.246338,873.252930 505.246338,885.250854 
	C493.874756,880.013123 483.296844,875.245544 472.807556,870.290344 
	C438.666107,854.161987 404.572021,837.933167 370.408325,821.852173 
	C367.545380,820.504639 366.689240,818.812683 366.768250,815.734436 
	C366.994629,806.909180 366.729279,798.071777 366.932648,789.245422 
	C366.996918,786.454590 365.997314,785.056702 363.571991,783.956909 
	C355.082367,780.107544 346.734406,775.939636 338.190277,772.219604 
	C334.849243,770.764954 333.578766,769.001160 333.586334,765.202393 
	C333.729614,692.887634 333.708557,620.572632 333.721008,548.257629 
	C333.722778,537.964355 333.721252,527.671082 333.721252,516.645691 
	C344.105438,521.420654 353.869507,525.910522 364.487762,530.793152 
	C364.487762,517.839172 364.487762,505.646942 364.487762,492.629852 
	C371.546967,495.780945 377.775665,498.448944 383.910339,501.317932 
	C423.440613,519.804871 462.962494,538.309998 502.414429,556.962891 
	C503.741577,557.590332 505.051697,559.836426 505.086273,561.357178 
	C505.301971,570.848877 505.286438,580.352295 505.048706,589.844299 
	C504.967621,593.081970 505.700897,594.835083 508.959015,596.189941 
	C517.861206,599.891785 526.596558,604.012573 535.267273,608.235657 
	C536.692871,608.929993 538.378418,610.976013 538.388550,612.408325 
	C538.540161,633.733826 538.431702,655.061218 538.368408,676.388062 
	C538.366943,676.866943 538.175720,677.345337 537.937012,678.458069 
	C536.174255,677.759521 534.524597,677.197754 532.952454,676.468811 
	C514.236572,667.790527 495.570709,659.002808 476.786682,650.475098 
	C473.709900,649.078308 472.673523,647.430908 472.762207,644.135254 
	C472.990601,635.643921 472.948822,627.139954 472.745605,618.647461 
	C472.710297,617.172729 471.730103,614.937866 470.559937,614.388672 
	C447.546173,603.587646 424.439667,592.984131 400.831024,582.100159 
	C400.654572,583.949646 400.431885,585.198853 400.431091,586.448181 
	C400.392303,645.599365 400.415894,704.750671 400.257202,763.901489 
	C400.246277,767.979492 401.322754,770.315979 405.208099,771.773132 
	C409.559784,773.405090 413.694977,775.614197 418.264801,777.733765 
z"/>
<path fill="#FBCA0A" opacity="1.000000" stroke="none" 
	d="
M924.185059,765.987305 
	C922.925171,767.626648 922.009827,769.935974 920.346619,770.791199 
	C912.505371,774.823853 904.544983,778.657532 896.445984,782.141052 
	C892.966919,783.637329 891.924744,785.582397 892.042664,789.265503 
	C892.319763,797.921021 892.221375,806.596191 891.965698,815.254272 
	C891.919006,816.834106 890.804932,819.172119 889.515137,819.811340 
	C843.308105,842.712708 797.022034,865.454590 750.741821,888.208191 
	C749.880249,888.631775 748.956543,888.929138 747.308289,889.585571 
	C747.308289,877.416809 747.308289,865.748230 747.308289,853.114075 
	C735.837646,858.584961 725.277832,863.621460 714.221497,868.894714 
	C714.098450,866.968628 713.931580,865.557922 713.929321,864.146973 
	C713.820740,796.658020 713.800171,729.168762 713.575684,661.680237 
	C713.523193,645.884399 712.910339,630.085754 712.273621,614.299805 
	C712.117065,610.418762 713.133911,608.320740 716.857849,606.788513 
	C724.237061,603.752258 731.286743,599.914124 738.669983,596.888855 
	C742.612366,595.273560 744.210266,593.196350 744.040466,588.807495 
	C743.692993,579.823364 744.133362,570.810730 743.889282,561.819580 
	C743.797913,558.454712 744.957581,556.879639 747.950500,555.476685 
	C780.829590,540.064880 813.631653,524.488831 846.464722,508.978821 
	C860.014832,502.577881 873.587708,496.225037 887.155579,489.861633 
	C888.472229,489.244141 889.826294,488.706573 891.743042,487.882507 
	C891.743042,501.806610 891.743042,515.202148 891.743042,529.586426 
	C902.061096,524.787903 911.633240,520.336243 921.743225,516.262268 
	C922.525696,519.104370 922.982849,521.568726 922.984070,524.033264 
	C923.022034,602.469971 923.006226,680.906738 923.065247,759.343384 
	C923.066895,761.558289 923.795471,763.772705 924.185059,765.987305 
M769.847046,658.499939 
	C769.847046,683.677246 769.847046,708.854553 769.847046,734.801514 
	C773.676270,733.008972 776.437561,731.473877 779.369873,730.410645 
	C782.408875,729.308655 783.178894,727.396179 783.057678,724.333984 
	C782.847107,719.014526 782.825439,713.657532 783.260315,708.360168 
	C783.397034,706.693787 784.894043,704.554077 786.382812,703.691833 
	C791.086914,700.967407 797.979431,699.930176 800.434570,695.998108 
	C802.924866,692.009949 801.505005,685.329651 801.125977,679.875061 
	C800.786194,674.985413 802.219055,671.724304 807.107483,670.715210 
	C818.710022,668.320007 822.472168,661.078064 820.237366,650.005188 
	C818.832520,643.043884 821.258728,638.567749 828.383301,636.899170 
	C837.069397,634.864868 840.473450,629.496399 838.756104,620.670715 
	C836.588013,609.528198 840.278259,601.893982 852.075134,599.383545 
	C852.859924,599.216492 853.676941,598.774231 854.266663,598.229980 
	C854.934326,597.613892 855.813049,596.744812 855.824524,595.974121 
	C855.939209,588.244080 855.894287,580.511719 855.894287,572.192505 
	C853.961243,572.926514 852.716370,573.308105 851.549316,573.855652 
	C825.206848,586.213135 798.850342,598.541809 772.600769,611.093933 
	C771.221191,611.753601 770.019531,614.327332 769.992676,616.029846 
	C769.774597,629.850525 769.856934,643.675903 769.847046,658.499939 
M783.725830,810.297058 
	C810.618225,797.079285 837.483826,783.806519 864.440125,770.720398 
	C867.466858,769.251099 868.397339,767.531982 868.389221,764.262146 
	C868.305908,730.766663 868.389099,697.270752 868.425049,663.774963 
	C868.427673,661.336487 868.425415,658.897949 868.425415,656.269104 
	C851.515442,661.414185 851.515381,661.414185 851.563110,677.979065 
	C851.564575,678.479004 851.494568,678.992126 851.581482,679.476929 
	C852.718323,685.820435 850.391663,689.979736 843.984985,691.571167 
	C834.635620,693.893494 830.703796,699.636963 832.593872,709.254456 
	C834.295105,717.910950 831.204041,723.417297 822.168579,725.390869 
	C814.254028,727.119568 810.414062,731.918884 812.092773,740.397095 
	C812.505066,742.479248 812.488464,744.801819 812.003418,746.856750 
	C811.619080,748.485168 810.565674,750.507874 809.205017,751.255615 
	C803.986877,754.123047 796.328796,755.223572 793.753357,759.497498 
	C791.013184,764.044800 792.840027,771.444946 792.992188,777.591553 
	C793.067383,780.631653 792.388306,782.456665 789.268677,783.598999 
	C785.221130,785.081177 781.368896,787.130310 777.526611,789.117065 
	C776.497253,789.649353 775.101807,790.823547 775.077026,791.735657 
	C774.877380,799.092773 774.965149,806.457703 774.965149,814.414917 
	C778.286621,812.880554 780.680176,811.774841 783.725830,810.297058 
z"/>
<path fill="#FFE204" opacity="1.000000" stroke="none" 
	d="
M924.317993,765.542358 
	C923.795471,763.772705 923.066895,761.558289 923.065247,759.343384 
	C923.006226,680.906738 923.022034,602.469971 922.984070,524.033264 
	C922.982849,521.568726 922.525696,519.104370 922.114380,516.246338 
	C922.783081,516.098633 924.304810,516.267578 924.342407,516.602966 
	C924.582214,518.740601 924.513306,520.914917 924.512817,523.077148 
	C924.494507,603.750549 924.472473,684.423950 924.317993,765.542358 
z"/>
<path fill="#030300" opacity="1.000000" stroke="none" 
	d="
M769.847412,657.999878 
	C769.856934,643.675903 769.774597,629.850525 769.992676,616.029846 
	C770.019531,614.327332 771.221191,611.753601 772.600769,611.093933 
	C798.850342,598.541809 825.206848,586.213135 851.549316,573.855652 
	C852.716370,573.308105 853.961243,572.926514 855.894287,572.192505 
	C855.894287,580.511719 855.939209,588.244080 855.824524,595.974121 
	C855.813049,596.744812 854.934326,597.613892 854.266663,598.229980 
	C853.676941,598.774231 852.859924,599.216492 852.075134,599.383545 
	C840.278259,601.893982 836.588013,609.528198 838.756104,620.670715 
	C840.473450,629.496399 837.069397,634.864868 828.383301,636.899170 
	C821.258728,638.567749 818.832520,643.043884 820.237366,650.005188 
	C822.472168,661.078064 818.710022,668.320007 807.107483,670.715210 
	C802.219055,671.724304 800.786194,674.985413 801.125977,679.875061 
	C801.505005,685.329651 802.924866,692.009949 800.434570,695.998108 
	C797.979431,699.930176 791.086914,700.967407 786.382812,703.691833 
	C784.894043,704.554077 783.397034,706.693787 783.260315,708.360168 
	C782.825439,713.657532 782.847107,719.014526 783.057678,724.333984 
	C783.178894,727.396179 782.408875,729.308655 779.369873,730.410645 
	C776.437561,731.473877 773.676270,733.008972 769.847046,734.801514 
	C769.847046,708.854553 769.847046,683.677246 769.847412,657.999878 
z"/>
<path fill="#030300" opacity="1.000000" stroke="none" 
	d="
M783.399780,810.483093 
	C780.680176,811.774841 778.286621,812.880554 774.965149,814.414917 
	C774.965149,806.457703 774.877380,799.092773 775.077026,791.735657 
	C775.101807,790.823547 776.497253,789.649353 777.526611,789.117065 
	C781.368896,787.130310 785.221130,785.081177 789.268677,783.598999 
	C792.388306,782.456665 793.067383,780.631653 792.992188,777.591553 
	C792.840027,771.444946 791.013184,764.044800 793.753357,759.497498 
	C796.328796,755.223572 803.986877,754.123047 809.205017,751.255615 
	C810.565674,750.507874 811.619080,748.485168 812.003418,746.856750 
	C812.488464,744.801819 812.505066,742.479248 812.092773,740.397095 
	C810.414062,731.918884 814.254028,727.119568 822.168579,725.390869 
	C831.204041,723.417297 834.295105,717.910950 832.593872,709.254456 
	C830.703796,699.636963 834.635620,693.893494 843.984985,691.571167 
	C850.391663,689.979736 852.718323,685.820435 851.581482,679.476929 
	C851.494568,678.992126 851.564575,678.479004 851.563110,677.979065 
	C851.515381,661.414185 851.515442,661.414185 868.425415,656.269104 
	C868.425415,658.897949 868.427673,661.336487 868.425049,663.774963 
	C868.389099,697.270752 868.305908,730.766663 868.389221,764.262146 
	C868.397339,767.531982 867.466858,769.251099 864.440125,770.720398 
	C837.483826,783.806519 810.618225,797.079285 783.399780,810.483093 
z"/>
</svg>